<?xml version="1.0" standalone="no"?>
<!DOCTYPE svg PUBLIC "-//W3C//DTD SVG 1.1//EN" "http://www.w3.org/Graphics/SVG/1.1/DTD/svg11.dtd" >
<svg xmlns="http://www.w3.org/2000/svg" xmlns:xlink="http://www.w3.org/1999/xlink" version="1.1">
<metadata>
Created by FontForge 20150824 at Tue Mar  1 04:18:44 2016
 By Everything Fonts
</metadata>
<defs>
<font id="DXI1ORHCpsQm3Vp6mXoaTf8zf_FOSsgRmwsS7Aa9k2w" horiz-adv-x="1229" >
  <font-face 
    font-family="DXI1ORHCpsQm3Vp6mXoaTf8zf_FOSsgRmwsS7Aa9k2w"
    font-weight="300"
    font-stretch="normal"
    units-per-em="2048"
    panose-1="2 11 3 6 3 5 4 2 2 4"
    ascent="1638"
    descent="-410"
    bbox="-1067 -324 1571 2146"
    underline-thickness="102"
    underline-position="-307"
    unicode-range="U+0102-20AB"
  />
<missing-glyph 
d="M193 1462h841v-1462h-841v1462zM297 104h633v1254h-633v-1254z" />
    <glyph glyph-name=".notdef" 
d="M193 1462h841v-1462h-841v1462zM297 104h633v1254h-633v-1254z" />
    <glyph glyph-name=".null" horiz-adv-x="0" 
 />
    <glyph glyph-name="nonmarkingreturn" horiz-adv-x="1044" 
 />
    <glyph glyph-name="Abreve" unicode="&#x102;" 
d="M911 516h-594l-204 -516h-113l588 1468h65l576 -1468h-115zM354 608h523l-199 527q-25 62 -60 172q-27 -96 -59 -174zM617 1579q-253 0 -275 246h82q14 -87 60.5 -124.5t134.5 -37.5t134.5 37.5t61.5 124.5h80q-30 -246 -278 -246z" />
    <glyph glyph-name="abreve" unicode="&#x103;" horiz-adv-x="1085" 
d="M842 0l-25 172h-8q-82 -105 -168.5 -148.5t-204.5 -43.5q-160 0 -249 82t-89 227q0 159 132.5 247t383.5 93l207 6v72q0 155 -63 234t-203 79q-151 0 -313 -84l-37 86q179 84 354 84q179 0 267.5 -93t88.5 -290v-723h-73zM442 70q174 0 274.5 99.5t100.5 276.5v107
l-190 -8q-229 -11 -326.5 -71.5t-97.5 -188.5q0 -102 62.5 -158.5t176.5 -56.5zM552 1241q-253 0 -275 246h82q14 -87 60.5 -124.5t134.5 -37.5t134.5 37.5t61.5 124.5h80q-30 -246 -278 -246z" />
    <glyph glyph-name="uni1EA0" unicode="&#x1ea0;" 
d="M911 516h-594l-204 -516h-113l588 1468h65l576 -1468h-115zM354 608h523l-199 527q-25 62 -60 172q-27 -96 -59 -174zM548 -227q0 96 64 96q31 0 48.5 -25t17.5 -71q0 -45 -17.5 -71t-48.5 -26q-64 0 -64 97z" />
    <glyph glyph-name="uni1EA1" unicode="&#x1ea1;" horiz-adv-x="1085" 
d="M842 0l-25 172h-8q-82 -105 -168.5 -148.5t-204.5 -43.5q-160 0 -249 82t-89 227q0 159 132.5 247t383.5 93l207 6v72q0 155 -63 234t-203 79q-151 0 -313 -84l-37 86q179 84 354 84q179 0 267.5 -93t88.5 -290v-723h-73zM442 70q174 0 274.5 99.5t100.5 276.5v107
l-190 -8q-229 -11 -326.5 -71.5t-97.5 -188.5q0 -102 62.5 -158.5t176.5 -56.5zM448 -227q0 96 64 96q31 0 48.5 -25t17.5 -71q0 -45 -17.5 -71t-48.5 -26q-64 0 -64 97z" />
    <glyph glyph-name="uni1EA2" unicode="&#x1ea2;" 
d="M911 516h-594l-204 -516h-113l588 1468h65l576 -1468h-115zM354 608h523l-199 527q-25 62 -60 172q-27 -96 -59 -174zM837 1843q0 -140 -168 -176l-10 -121h-80l-10 178q89 15 129.5 43t40.5 72q0 48 -33.5 72t-111.5 24q-48 0 -93 -8v78q52 12 107 12q108 0 168.5 -45.5
t60.5 -128.5z" />
    <glyph glyph-name="uni1EA3" unicode="&#x1ea3;" horiz-adv-x="1085" 
d="M842 0l-25 172h-8q-82 -105 -168.5 -148.5t-204.5 -43.5q-160 0 -249 82t-89 227q0 159 132.5 247t383.5 93l207 6v72q0 155 -63 234t-203 79q-151 0 -313 -84l-37 86q179 84 354 84q179 0 267.5 -93t88.5 -290v-723h-73zM442 70q174 0 274.5 99.5t100.5 276.5v107
l-190 -8q-229 -11 -326.5 -71.5t-97.5 -188.5q0 -102 62.5 -158.5t176.5 -56.5zM731 1505q0 -140 -168 -176l-10 -121h-80l-10 178q89 15 129.5 43t40.5 72q0 48 -33.5 72t-111.5 24q-48 0 -93 -8v78q52 12 107 12q108 0 168.5 -45.5t60.5 -128.5z" />
    <glyph glyph-name="uni1EA4" unicode="&#x1ea4;" 
d="M911 516h-594l-204 -516h-113l588 1468h65l576 -1468h-115zM354 608h523l-199 527q-25 62 -60 172q-27 -96 -59 -174zM674 1856q101 -135 229 -261v-16h-67q-128 93 -217 176q-89 -83 -217 -176h-68v16q141 136 234 261h106zM824 1790q42 54 65.5 90t69.5 121h125v-16
q-90 -121 -193 -211h-67v16z" />
    <glyph glyph-name="uni1EA5" unicode="&#x1ea5;" horiz-adv-x="1085" 
d="M842 0l-25 172h-8q-82 -105 -168.5 -148.5t-204.5 -43.5q-160 0 -249 82t-89 227q0 159 132.5 247t383.5 93l207 6v72q0 155 -63 234t-203 79q-151 0 -313 -84l-37 86q179 84 354 84q179 0 267.5 -93t88.5 -290v-723h-73zM442 70q174 0 274.5 99.5t100.5 276.5v107
l-190 -8q-229 -11 -326.5 -71.5t-97.5 -188.5q0 -102 62.5 -158.5t176.5 -56.5zM588 1518q101 -135 229 -261v-16h-67q-128 93 -217 176q-89 -83 -217 -176h-68v16q141 136 234 261h106zM738 1452q42 54 65.5 90t69.5 121h125v-16q-90 -121 -193 -211h-67v16z" />
    <glyph glyph-name="uni1EA6" unicode="&#x1ea6;" 
d="M911 516h-594l-204 -516h-113l588 1468h65l576 -1468h-115zM354 608h523l-199 527q-25 62 -60 172q-27 -96 -59 -174zM674 1856q101 -135 229 -261v-16h-67q-128 93 -217 176q-89 -83 -217 -176h-68v16q141 136 234 261h106zM418 1774h-67q-115 100 -193 211v16h125
q47 -86 69 -119.5t66 -91.5v-16z" />
    <glyph glyph-name="uni1EA7" unicode="&#x1ea7;" horiz-adv-x="1085" 
d="M842 0l-25 172h-8q-82 -105 -168.5 -148.5t-204.5 -43.5q-160 0 -249 82t-89 227q0 159 132.5 247t383.5 93l207 6v72q0 155 -63 234t-203 79q-151 0 -313 -84l-37 86q179 84 354 84q179 0 267.5 -93t88.5 -290v-723h-73zM442 70q174 0 274.5 99.5t100.5 276.5v107
l-190 -8q-229 -11 -326.5 -71.5t-97.5 -188.5q0 -102 62.5 -158.5t176.5 -56.5zM588 1518q101 -135 229 -261v-16h-67q-128 93 -217 176q-89 -83 -217 -176h-68v16q141 136 234 261h106zM332 1436h-67q-115 100 -193 211v16h125q47 -86 69 -119.5t66 -91.5v-16z" />
    <glyph glyph-name="uni1EA8" unicode="&#x1ea8;" 
d="M911 516h-594l-204 -516h-113l588 1468h65l576 -1468h-115zM354 608h523l-199 527q-25 62 -60 172q-27 -96 -59 -174zM1086 1987q0 -107 -131 -136l-4 -81h-68l-10 131q63 11 94 28t31 56q0 37 -29 50t-76 13q-31 0 -71 -6v72q34 8 86 8q84 0 131 -36t47 -99zM674 1856
q101 -135 229 -261v-16h-67q-128 93 -217 176q-89 -83 -217 -176h-68v16q141 136 234 261h106z" />
    <glyph glyph-name="uni1EA9" unicode="&#x1ea9;" horiz-adv-x="1085" 
d="M842 0l-25 172h-8q-82 -105 -168.5 -148.5t-204.5 -43.5q-160 0 -249 82t-89 227q0 159 132.5 247t383.5 93l207 6v72q0 155 -63 234t-203 79q-151 0 -313 -84l-37 86q179 84 354 84q179 0 267.5 -93t88.5 -290v-723h-73zM442 70q174 0 274.5 99.5t100.5 276.5v107
l-190 -8q-229 -11 -326.5 -71.5t-97.5 -188.5q0 -102 62.5 -158.5t176.5 -56.5zM1000 1649q0 -107 -131 -136l-4 -81h-68l-10 131q63 11 94 28t31 56q0 37 -29 50t-76 13q-31 0 -71 -6v72q34 8 86 8q84 0 131 -36t47 -99zM588 1518q101 -135 229 -261v-16h-67
q-128 93 -217 176q-89 -83 -217 -176h-68v16q141 136 234 261h106z" />
    <glyph glyph-name="uni1EAA" unicode="&#x1eaa;" 
d="M911 516h-594l-204 -516h-113l588 1468h65l576 -1468h-115zM354 608h523l-199 527q-25 62 -60 172q-27 -96 -59 -174zM754 1935q-39 0 -74.5 20t-67.5 43.5t-61 43.5t-55 20q-80 0 -105 -129h-73q14 97 60 154t124 57q39 0 73.5 -19.5t66 -43t60.5 -43t58 -19.5
q75 0 98 127h76q-11 -101 -58.5 -156t-121.5 -55zM674 1856q101 -135 229 -261v-16h-67q-128 93 -217 176q-89 -83 -217 -176h-68v16q141 136 234 261h106z" />
    <glyph glyph-name="uni1EAB" unicode="&#x1eab;" horiz-adv-x="1085" 
d="M842 0l-25 172h-8q-82 -105 -168.5 -148.5t-204.5 -43.5q-160 0 -249 82t-89 227q0 159 132.5 247t383.5 93l207 6v72q0 155 -63 234t-203 79q-151 0 -313 -84l-37 86q179 84 354 84q179 0 267.5 -93t88.5 -290v-723h-73zM442 70q174 0 274.5 99.5t100.5 276.5v107
l-190 -8q-229 -11 -326.5 -71.5t-97.5 -188.5q0 -102 62.5 -158.5t176.5 -56.5zM668 1597q-39 0 -74.5 20t-67.5 43.5t-61 43.5t-55 20q-80 0 -105 -129h-73q14 97 60 154t124 57q39 0 73.5 -19.5t66 -43t60.5 -43t58 -19.5q75 0 98 127h76q-11 -101 -58.5 -156t-121.5 -55z
M588 1518q101 -135 229 -261v-16h-67q-128 93 -217 176q-89 -83 -217 -176h-68v16q141 136 234 261h106z" />
    <glyph glyph-name="uni1EAC" unicode="&#x1eac;" 
d="M911 516h-594l-204 -516h-113l588 1468h65l576 -1468h-115zM354 608h523l-199 527q-25 62 -60 172q-27 -96 -59 -174zM548 -227q0 96 64 96q31 0 48.5 -25t17.5 -71q0 -45 -17.5 -71t-48.5 -26q-64 0 -64 97zM328 1595q62 67 131.5 156t110.5 156h98q68 -120 242 -312
v-16h-70q-122 101 -221 207q-108 -114 -221 -207h-70v16z" />
    <glyph glyph-name="uni1EAD" unicode="&#x1ead;" horiz-adv-x="1085" 
d="M842 0l-25 172h-8q-82 -105 -168.5 -148.5t-204.5 -43.5q-160 0 -249 82t-89 227q0 159 132.5 247t383.5 93l207 6v72q0 155 -63 234t-203 79q-151 0 -313 -84l-37 86q179 84 354 84q179 0 267.5 -93t88.5 -290v-723h-73zM442 70q174 0 274.5 99.5t100.5 276.5v107
l-190 -8q-229 -11 -326.5 -71.5t-97.5 -188.5q0 -102 62.5 -158.5t176.5 -56.5zM251 1257q62 67 131.5 156t110.5 156h98q68 -120 242 -312v-16h-70q-122 101 -221 207q-108 -114 -221 -207h-70v16zM448 -227q0 96 64 96q31 0 48.5 -25t17.5 -71q0 -45 -17.5 -71t-48.5 -26
q-64 0 -64 97z" />
    <glyph glyph-name="uni1EAE" unicode="&#x1eae;" 
d="M911 516h-594l-204 -516h-113l588 1468h65l576 -1468h-115zM354 608h523l-199 527q-25 62 -60 172q-27 -96 -59 -174zM617 1579q-253 0 -275 246h82q14 -87 60.5 -124.5t134.5 -37.5t134.5 37.5t61.5 124.5h80q-30 -246 -278 -246zM555 1856q34 42 59.5 80t75.5 131h125
v-17q-37 -53 -93 -113.5t-99 -97.5h-68v17z" />
    <glyph glyph-name="uni1EAF" unicode="&#x1eaf;" horiz-adv-x="1085" 
d="M842 0l-25 172h-8q-82 -105 -168.5 -148.5t-204.5 -43.5q-160 0 -249 82t-89 227q0 159 132.5 247t383.5 93l207 6v72q0 155 -63 234t-203 79q-151 0 -313 -84l-37 86q179 84 354 84q179 0 267.5 -93t88.5 -290v-723h-73zM442 70q174 0 274.5 99.5t100.5 276.5v107
l-190 -8q-229 -11 -326.5 -71.5t-97.5 -188.5q0 -102 62.5 -158.5t176.5 -56.5zM551 1241q-253 0 -275 246h82q14 -87 60.5 -124.5t134.5 -37.5t134.5 37.5t61.5 124.5h80q-30 -246 -278 -246zM489 1518q34 42 59.5 80t75.5 131h125v-17q-37 -53 -93 -113.5t-99 -97.5h-68
v17z" />
    <glyph glyph-name="uni1EB0" unicode="&#x1eb0;" 
d="M911 516h-594l-204 -516h-113l588 1468h65l576 -1468h-115zM354 608h523l-199 527q-25 62 -60 172q-27 -96 -59 -174zM670 1839h-68q-42 37 -99 98.5t-93 112.5v17h125q51 -94 70 -122.5t65 -88.5v-17zM617 1579q-253 0 -275 246h82q14 -87 60.5 -124.5t134.5 -37.5
t134.5 37.5t61.5 124.5h80q-30 -246 -278 -246z" />
    <glyph glyph-name="uni1EB1" unicode="&#x1eb1;" horiz-adv-x="1085" 
d="M842 0l-25 172h-8q-82 -105 -168.5 -148.5t-204.5 -43.5q-160 0 -249 82t-89 227q0 159 132.5 247t383.5 93l207 6v72q0 155 -63 234t-203 79q-151 0 -313 -84l-37 86q179 84 354 84q179 0 267.5 -93t88.5 -290v-723h-73zM442 70q174 0 274.5 99.5t100.5 276.5v107
l-190 -8q-229 -11 -326.5 -71.5t-97.5 -188.5q0 -102 62.5 -158.5t176.5 -56.5zM604 1501h-68q-42 37 -99 98.5t-93 112.5v17h125q51 -94 70 -122.5t65 -88.5v-17zM551 1241q-253 0 -275 246h82q14 -87 60.5 -124.5t134.5 -37.5t134.5 37.5t61.5 124.5h80
q-30 -246 -278 -246z" />
    <glyph glyph-name="uni1EB2" unicode="&#x1eb2;" 
d="M911 516h-594l-204 -516h-113l588 1468h65l576 -1468h-115zM354 608h523l-199 527q-25 62 -60 172q-27 -96 -59 -174zM760 1999q0 -107 -127 -131l-6 -43h-70l-10 90q62 11 93.5 28.5t31.5 55.5q0 63 -98 63q-39 0 -78 -6v72q34 8 90 8q80 0 127 -37t47 -100zM617 1579
q-253 0 -275 246h82q14 -87 60.5 -124.5t134.5 -37.5t134.5 37.5t61.5 124.5h80q-30 -246 -278 -246z" />
    <glyph glyph-name="uni1EB3" unicode="&#x1eb3;" horiz-adv-x="1085" 
d="M842 0l-25 172h-8q-82 -105 -168.5 -148.5t-204.5 -43.5q-160 0 -249 82t-89 227q0 159 132.5 247t383.5 93l207 6v72q0 155 -63 234t-203 79q-151 0 -313 -84l-37 86q179 84 354 84q179 0 267.5 -93t88.5 -290v-723h-73zM442 70q174 0 274.5 99.5t100.5 276.5v107
l-190 -8q-229 -11 -326.5 -71.5t-97.5 -188.5q0 -102 62.5 -158.5t176.5 -56.5zM694 1661q0 -107 -127 -131l-6 -43h-70l-10 90q62 11 93.5 28.5t31.5 55.5q0 63 -98 63q-39 0 -78 -6v72q34 8 90 8q80 0 127 -37t47 -100zM551 1241q-253 0 -275 246h82q14 -87 60.5 -124.5
t134.5 -37.5t134.5 37.5t61.5 124.5h80q-30 -246 -278 -246z" />
    <glyph glyph-name="uni1EB4" unicode="&#x1eb4;" 
d="M911 516h-594l-204 -516h-113l588 1468h65l576 -1468h-115zM354 608h523l-199 527q-25 62 -60 172q-27 -96 -59 -174zM617 1579q-253 0 -275 246h82q14 -87 60.5 -124.5t134.5 -37.5t134.5 37.5t61.5 124.5h80q-30 -246 -278 -246zM758 1925q-39 0 -74.5 20t-67.5 43.5
t-61 43.5t-55 20q-80 0 -105 -129h-73q14 97 60 154t124 57q39 0 73.5 -19.5t66 -43t60.5 -43t58 -19.5q45 0 66 35t32 92h76q-11 -101 -58.5 -156t-121.5 -55z" />
    <glyph glyph-name="uni1EB5" unicode="&#x1eb5;" horiz-adv-x="1085" 
d="M842 0l-25 172h-8q-82 -105 -168.5 -148.5t-204.5 -43.5q-160 0 -249 82t-89 227q0 159 132.5 247t383.5 93l207 6v72q0 155 -63 234t-203 79q-151 0 -313 -84l-37 86q179 84 354 84q179 0 267.5 -93t88.5 -290v-723h-73zM442 70q174 0 274.5 99.5t100.5 276.5v107
l-190 -8q-229 -11 -326.5 -71.5t-97.5 -188.5q0 -102 62.5 -158.5t176.5 -56.5zM551 1241q-253 0 -275 246h82q14 -87 60.5 -124.5t134.5 -37.5t134.5 37.5t61.5 124.5h80q-30 -246 -278 -246zM692 1587q-39 0 -74.5 20t-67.5 43.5t-61 43.5t-55 20q-80 0 -105 -129h-73
q14 97 60 154t124 57q39 0 73.5 -19.5t66 -43t60.5 -43t58 -19.5q45 0 66 35t32 92h76q-11 -101 -58.5 -156t-121.5 -55z" />
    <glyph glyph-name="uni1EB6" unicode="&#x1eb6;" 
d="M911 516h-594l-204 -516h-113l588 1468h65l576 -1468h-115zM354 608h523l-199 527q-25 62 -60 172q-27 -96 -59 -174zM617 1579q-253 0 -275 246h82q14 -87 60.5 -124.5t134.5 -37.5t134.5 37.5t61.5 124.5h80q-30 -246 -278 -246zM548 -227q0 96 64 96q31 0 48.5 -25
t17.5 -71q0 -45 -17.5 -71t-48.5 -26q-64 0 -64 97z" />
    <glyph glyph-name="uni1EB7" unicode="&#x1eb7;" horiz-adv-x="1085" 
d="M842 0l-25 172h-8q-82 -105 -168.5 -148.5t-204.5 -43.5q-160 0 -249 82t-89 227q0 159 132.5 247t383.5 93l207 6v72q0 155 -63 234t-203 79q-151 0 -313 -84l-37 86q179 84 354 84q179 0 267.5 -93t88.5 -290v-723h-73zM442 70q174 0 274.5 99.5t100.5 276.5v107
l-190 -8q-229 -11 -326.5 -71.5t-97.5 -188.5q0 -102 62.5 -158.5t176.5 -56.5zM552 1241q-253 0 -275 246h82q14 -87 60.5 -124.5t134.5 -37.5t134.5 37.5t61.5 124.5h80q-30 -246 -278 -246zM448 -227q0 96 64 96q31 0 48.5 -25t17.5 -71q0 -45 -17.5 -71t-48.5 -26
q-64 0 -64 97z" />
    <glyph glyph-name="uni1EB8" unicode="&#x1eb8;" horiz-adv-x="1130" 
d="M1006 0h-799v1462h799v-94h-697v-553h658v-94h-658v-627h697v-94zM544 -227q0 96 64 96q31 0 48.5 -25t17.5 -71q0 -45 -17.5 -71t-48.5 -26q-64 0 -64 97z" />
    <glyph glyph-name="uni1EB9" unicode="&#x1eb9;" horiz-adv-x="1124" 
d="M621 -20q-237 0 -369.5 146t-132.5 409q0 260 128 416.5t345 156.5q192 0 303 -134t111 -364v-80h-783q2 -224 104.5 -342t293.5 -118q93 0 163.5 13t178.5 56v-90q-92 -40 -170 -54.5t-172 -14.5zM592 1020q-157 0 -252 -103.5t-111 -298.5h672q0 189 -82 295.5
t-227 106.5zM512 -227q0 96 64 96q31 0 48.5 -25t17.5 -71q0 -45 -17.5 -71t-48.5 -26q-64 0 -64 97z" />
    <glyph glyph-name="uni1EBA" unicode="&#x1eba;" horiz-adv-x="1130" 
d="M1006 0h-799v1462h799v-94h-697v-553h658v-94h-658v-627h697v-94zM798 1843q0 -140 -168 -176l-10 -121h-80l-10 178q89 15 129.5 43t40.5 72q0 48 -33.5 72t-111.5 24q-48 0 -93 -8v78q52 12 107 12q108 0 168.5 -45.5t60.5 -128.5z" />
    <glyph glyph-name="uni1EBB" unicode="&#x1ebb;" horiz-adv-x="1124" 
d="M621 -20q-237 0 -369.5 146t-132.5 409q0 260 128 416.5t345 156.5q192 0 303 -134t111 -364v-80h-783q2 -224 104.5 -342t293.5 -118q93 0 163.5 13t178.5 56v-90q-92 -40 -170 -54.5t-172 -14.5zM592 1020q-157 0 -252 -103.5t-111 -298.5h672q0 189 -82 295.5
t-227 106.5zM786 1505q0 -140 -168 -176l-10 -121h-80l-10 178q89 15 129.5 43t40.5 72q0 48 -33.5 72t-111.5 24q-48 0 -93 -8v78q52 12 107 12q108 0 168.5 -45.5t60.5 -128.5z" />
    <glyph glyph-name="uni1EBC" unicode="&#x1ebc;" horiz-adv-x="1130" 
d="M1006 0h-799v1462h799v-94h-697v-553h658v-94h-658v-627h697v-94zM754 1581q-36 0 -75 18.5t-101 71.5q-32 26 -62.5 46t-62.5 20q-45 0 -75 -34.5t-48 -121.5h-73q10 111 63 174.5t137 63.5q48 0 88 -25t82 -59q34 -28 66 -50t61 -22q46 0 77 36.5t48 119.5h76
q-16 -116 -69 -177t-132 -61z" />
    <glyph glyph-name="uni1EBD" unicode="&#x1ebd;" horiz-adv-x="1124" 
d="M621 -20q-237 0 -369.5 146t-132.5 409q0 260 128 416.5t345 156.5q192 0 303 -134t111 -364v-80h-783q2 -224 104.5 -342t293.5 -118q93 0 163.5 13t178.5 56v-90q-92 -40 -170 -54.5t-172 -14.5zM592 1020q-157 0 -252 -103.5t-111 -298.5h672q0 189 -82 295.5
t-227 106.5zM738 1243q-36 0 -75 18.5t-101 71.5q-32 26 -62.5 46t-62.5 20q-45 0 -75 -34.5t-48 -121.5h-73q10 111 63 174.5t137 63.5q48 0 88 -25t82 -59q34 -28 66 -50t61 -22q46 0 77 36.5t48 119.5h76q-16 -116 -69 -177t-132 -61z" />
    <glyph glyph-name="uni1EBE" unicode="&#x1ebe;" horiz-adv-x="1130" 
d="M1006 0h-799v1462h799v-94h-697v-553h658v-94h-658v-627h697v-94zM659 1856q101 -135 229 -261v-16h-67q-128 93 -217 176q-89 -83 -217 -176h-68v16q141 136 234 261h106zM809 1790q42 54 65.5 90t69.5 121h125v-16q-90 -121 -193 -211h-67v16z" />
    <glyph glyph-name="uni1EBF" unicode="&#x1ebf;" horiz-adv-x="1124" 
d="M621 -20q-237 0 -369.5 146t-132.5 409q0 260 128 416.5t345 156.5q192 0 303 -134t111 -364v-80h-783q2 -224 104.5 -342t293.5 -118q93 0 163.5 13t178.5 56v-90q-92 -40 -170 -54.5t-172 -14.5zM592 1020q-157 0 -252 -103.5t-111 -298.5h672q0 189 -82 295.5
t-227 106.5zM623 1518q101 -135 229 -261v-16h-67q-128 93 -217 176q-89 -83 -217 -176h-68v16q141 136 234 261h106zM773 1452q42 54 65.5 90t69.5 121h125v-16q-90 -121 -193 -211h-67v16z" />
    <glyph glyph-name="uni1EC0" unicode="&#x1ec0;" horiz-adv-x="1130" 
d="M1006 0h-799v1462h799v-94h-697v-553h658v-94h-658v-627h697v-94zM661 1856q101 -135 229 -261v-16h-67q-128 93 -217 176q-89 -83 -217 -176h-68v16q141 136 234 261h106zM405 1774h-67q-115 100 -193 211v16h125q47 -86 69 -119.5t66 -91.5v-16z" />
    <glyph glyph-name="uni1EC1" unicode="&#x1ec1;" horiz-adv-x="1124" 
d="M621 -20q-237 0 -369.5 146t-132.5 409q0 260 128 416.5t345 156.5q192 0 303 -134t111 -364v-80h-783q2 -224 104.5 -342t293.5 -118q93 0 163.5 13t178.5 56v-90q-92 -40 -170 -54.5t-172 -14.5zM592 1020q-157 0 -252 -103.5t-111 -298.5h672q0 189 -82 295.5
t-227 106.5zM623 1518q101 -135 229 -261v-16h-67q-128 93 -217 176q-89 -83 -217 -176h-68v16q141 136 234 261h106zM367 1436h-67q-115 100 -193 211v16h125q47 -86 69 -119.5t66 -91.5v-16z" />
    <glyph glyph-name="uni1EC2" unicode="&#x1ec2;" horiz-adv-x="1130" 
d="M1006 0h-799v1462h799v-94h-697v-553h658v-94h-658v-627h697v-94zM1073 1987q0 -107 -131 -136l-4 -81h-68l-10 131q63 11 94 28t31 56q0 37 -29 50t-76 13q-31 0 -71 -6v72q34 8 86 8q84 0 131 -36t47 -99zM661 1856q101 -135 229 -261v-16h-67q-128 93 -217 176
q-89 -83 -217 -176h-68v16q141 136 234 261h106z" />
    <glyph glyph-name="uni1EC3" unicode="&#x1ec3;" horiz-adv-x="1124" 
d="M621 -20q-237 0 -369.5 146t-132.5 409q0 260 128 416.5t345 156.5q192 0 303 -134t111 -364v-80h-783q2 -224 104.5 -342t293.5 -118q93 0 163.5 13t178.5 56v-90q-92 -40 -170 -54.5t-172 -14.5zM592 1020q-157 0 -252 -103.5t-111 -298.5h672q0 189 -82 295.5
t-227 106.5zM1035 1649q0 -107 -131 -136l-4 -81h-68l-10 131q63 11 94 28t31 56q0 37 -29 50t-76 13q-31 0 -71 -6v72q34 8 86 8q84 0 131 -36t47 -99zM623 1518q101 -135 229 -261v-16h-67q-128 93 -217 176q-89 -83 -217 -176h-68v16q141 136 234 261h106z" />
    <glyph glyph-name="uni1EC4" unicode="&#x1ec4;" horiz-adv-x="1130" 
d="M1006 0h-799v1462h799v-94h-697v-553h658v-94h-658v-627h697v-94zM741 1935q-39 0 -74.5 20t-67.5 43.5t-61 43.5t-55 20q-80 0 -105 -129h-73q14 97 60 154t124 57q39 0 73.5 -19.5t66 -43t60.5 -43t58 -19.5q75 0 98 127h76q-11 -101 -58.5 -156t-121.5 -55zM661 1856
q101 -135 229 -261v-16h-67q-128 93 -217 176q-89 -83 -217 -176h-68v16q141 136 234 261h106z" />
    <glyph glyph-name="uni1EC5" unicode="&#x1ec5;" horiz-adv-x="1124" 
d="M621 -20q-237 0 -369.5 146t-132.5 409q0 260 128 416.5t345 156.5q192 0 303 -134t111 -364v-80h-783q2 -224 104.5 -342t293.5 -118q93 0 163.5 13t178.5 56v-90q-92 -40 -170 -54.5t-172 -14.5zM592 1020q-157 0 -252 -103.5t-111 -298.5h672q0 189 -82 295.5
t-227 106.5zM713 1597q-39 0 -74.5 20t-67.5 43.5t-61 43.5t-55 20q-80 0 -105 -129h-73q14 97 60 154t124 57q39 0 73.5 -19.5t66 -43t60.5 -43t58 -19.5q75 0 98 127h76q-11 -101 -58.5 -156t-121.5 -55zM633 1518q101 -135 229 -261v-16h-67q-128 93 -217 176
q-89 -83 -217 -176h-68v16q141 136 234 261h106z" />
    <glyph glyph-name="uni1EC6" unicode="&#x1ec6;" horiz-adv-x="1130" 
d="M1006 0h-799v1462h799v-94h-697v-553h658v-94h-658v-627h697v-94zM544 -227q0 96 64 96q31 0 48.5 -25t17.5 -71q0 -45 -17.5 -71t-48.5 -26q-64 0 -64 97zM315 1595q62 67 131.5 156t110.5 156h98q68 -120 242 -312v-16h-70q-122 101 -221 207q-108 -114 -221 -207h-70
v16z" />
    <glyph glyph-name="uni1EC7" unicode="&#x1ec7;" horiz-adv-x="1124" 
d="M621 -20q-237 0 -369.5 146t-132.5 409q0 260 128 416.5t345 156.5q192 0 303 -134t111 -364v-80h-783q2 -224 104.5 -342t293.5 -118q93 0 163.5 13t178.5 56v-90q-92 -40 -170 -54.5t-172 -14.5zM592 1020q-157 0 -252 -103.5t-111 -298.5h672q0 189 -82 295.5
t-227 106.5zM290 1257q62 67 131.5 156t110.5 156h98q68 -120 242 -312v-16h-70q-122 101 -221 207q-108 -114 -221 -207h-70v16zM512 -227q0 96 64 96q31 0 48.5 -25t17.5 -71q0 -45 -17.5 -71t-48.5 -26q-64 0 -64 97z" />
    <glyph glyph-name="uni1EC8" unicode="&#x1ec8;" horiz-adv-x="516" 
d="M207 0v1462h102v-1462h-102zM469 1843q0 -140 -168 -176l-10 -121h-80l-10 178q89 15 129.5 43t40.5 72q0 48 -33.5 72t-111.5 24q-48 0 -93 -8v78q52 12 107 12q108 0 168.5 -45.5t60.5 -128.5z" />
    <glyph glyph-name="uni1EC9" unicode="&#x1ec9;" horiz-adv-x="463" 
d="M281 0h-99v1087h99v-1087zM448 1505q0 -140 -168 -176l-10 -121h-80l-10 178q89 15 129.5 43t40.5 72q0 48 -33.5 72t-111.5 24q-48 0 -93 -8v78q52 12 107 12q108 0 168.5 -45.5t60.5 -128.5z" />
    <glyph glyph-name="uni1ECA" unicode="&#x1eca;" horiz-adv-x="516" 
d="M207 0v1462h102v-1462h-102zM192 -227q0 96 64 96q31 0 48.5 -25t17.5 -71q0 -45 -17.5 -71t-48.5 -26q-64 0 -64 97z" />
    <glyph glyph-name="uni1ECB" unicode="&#x1ecb;" horiz-adv-x="463" 
d="M281 0h-99v1087h99v-1087zM168 1389q0 96 63 96q31 0 48.5 -25t17.5 -71q0 -45 -17.5 -71t-48.5 -26q-63 0 -63 97zM165 -227q0 96 64 96q31 0 48.5 -25t17.5 -71q0 -45 -17.5 -71t-48.5 -26q-64 0 -64 97z" />
    <glyph glyph-name="uni1ECC" unicode="&#x1ecc;" horiz-adv-x="1565" 
d="M1436 733q0 -348 -174 -550.5t-480 -202.5q-305 0 -479 202.5t-174 552.5q0 349 175.5 549.5t479.5 200.5q306 0 479 -201.5t173 -550.5zM240 733q0 -314 140 -485.5t402 -171.5q264 0 403.5 170t139.5 487q0 316 -139.5 484.5t-401.5 168.5q-261 0 -402.5 -170
t-141.5 -483zM716 -227q0 96 64 96q31 0 48.5 -25t17.5 -71q0 -45 -17.5 -71t-48.5 -26q-64 0 -64 97z" />
    <glyph glyph-name="uni1ECD" unicode="&#x1ecd;" horiz-adv-x="1200" 
d="M1081 545q0 -266 -129 -415.5t-356 -149.5q-143 0 -252 69t-167 198t-58 298q0 266 129 414.5t354 148.5q224 0 351.5 -150.5t127.5 -412.5zM223 545q0 -224 98.5 -349.5t278.5 -125.5t278.5 125.5t98.5 349.5q0 225 -99.5 349t-279.5 124t-277.5 -123.5t-97.5 -349.5z
M534 -227q0 96 64 96q31 0 48.5 -25t17.5 -71q0 -45 -17.5 -71t-48.5 -26q-64 0 -64 97z" />
    <glyph glyph-name="uni1ECE" unicode="&#x1ece;" horiz-adv-x="1565" 
d="M1436 733q0 -348 -174 -550.5t-480 -202.5q-305 0 -479 202.5t-174 552.5q0 349 175.5 549.5t479.5 200.5q306 0 479 -201.5t173 -550.5zM240 733q0 -314 140 -485.5t402 -171.5q264 0 403.5 170t139.5 487q0 316 -139.5 484.5t-401.5 168.5q-261 0 -402.5 -170
t-141.5 -483zM974 1843q0 -140 -168 -176l-10 -121h-80l-10 178q89 15 129.5 43t40.5 72q0 48 -33.5 72t-111.5 24q-48 0 -93 -8v78q52 12 107 12q108 0 168.5 -45.5t60.5 -128.5z" />
    <glyph glyph-name="uni1ECF" unicode="&#x1ecf;" horiz-adv-x="1200" 
d="M1081 545q0 -266 -129 -415.5t-356 -149.5q-143 0 -252 69t-167 198t-58 298q0 266 129 414.5t354 148.5q224 0 351.5 -150.5t127.5 -412.5zM223 545q0 -224 98.5 -349.5t278.5 -125.5t278.5 125.5t98.5 349.5q0 225 -99.5 349t-279.5 124t-277.5 -123.5t-97.5 -349.5z
M792 1505q0 -140 -168 -176l-10 -121h-80l-10 178q89 15 129.5 43t40.5 72q0 48 -33.5 72t-111.5 24q-48 0 -93 -8v78q52 12 107 12q108 0 168.5 -45.5t60.5 -128.5z" />
    <glyph glyph-name="uni1ED0" unicode="&#x1ed0;" horiz-adv-x="1565" 
d="M1436 733q0 -348 -174 -550.5t-480 -202.5q-305 0 -479 202.5t-174 552.5q0 349 175.5 549.5t479.5 200.5q306 0 479 -201.5t173 -550.5zM240 733q0 -314 140 -485.5t402 -171.5q264 0 403.5 170t139.5 487q0 316 -139.5 484.5t-401.5 168.5q-261 0 -402.5 -170
t-141.5 -483zM838 1856q101 -135 229 -261v-16h-67q-128 93 -217 176q-89 -83 -217 -176h-68v16q141 136 234 261h106zM988 1790q42 54 65.5 90t69.5 121h125v-16q-90 -121 -193 -211h-67v16z" />
    <glyph glyph-name="uni1ED1" unicode="&#x1ed1;" horiz-adv-x="1200" 
d="M1081 545q0 -266 -129 -415.5t-356 -149.5q-143 0 -252 69t-167 198t-58 298q0 266 129 414.5t354 148.5q224 0 351.5 -150.5t127.5 -412.5zM223 545q0 -224 98.5 -349.5t278.5 -125.5t278.5 125.5t98.5 349.5q0 225 -99.5 349t-279.5 124t-277.5 -123.5t-97.5 -349.5z
M655 1518q101 -135 229 -261v-16h-67q-128 93 -217 176q-89 -83 -217 -176h-68v16q141 136 234 261h106zM805 1452q42 54 65.5 90t69.5 121h125v-16q-90 -121 -193 -211h-67v16z" />
    <glyph glyph-name="uni1ED2" unicode="&#x1ed2;" horiz-adv-x="1565" 
d="M1436 733q0 -348 -174 -550.5t-480 -202.5q-305 0 -479 202.5t-174 552.5q0 349 175.5 549.5t479.5 200.5q306 0 479 -201.5t173 -550.5zM240 733q0 -314 140 -485.5t402 -171.5q264 0 403.5 170t139.5 487q0 316 -139.5 484.5t-401.5 168.5q-261 0 -402.5 -170
t-141.5 -483zM838 1856q101 -135 229 -261v-16h-67q-128 93 -217 176q-89 -83 -217 -176h-68v16q141 136 234 261h106zM582 1774h-67q-115 100 -193 211v16h125q47 -86 69 -119.5t66 -91.5v-16z" />
    <glyph glyph-name="uni1ED3" unicode="&#x1ed3;" horiz-adv-x="1200" 
d="M1081 545q0 -266 -129 -415.5t-356 -149.5q-143 0 -252 69t-167 198t-58 298q0 266 129 414.5t354 148.5q224 0 351.5 -150.5t127.5 -412.5zM223 545q0 -224 98.5 -349.5t278.5 -125.5t278.5 125.5t98.5 349.5q0 225 -99.5 349t-279.5 124t-277.5 -123.5t-97.5 -349.5z
M655 1518q101 -135 229 -261v-16h-67q-128 93 -217 176q-89 -83 -217 -176h-68v16q141 136 234 261h106zM399 1436h-67q-115 100 -193 211v16h125q47 -86 69 -119.5t66 -91.5v-16z" />
    <glyph glyph-name="uni1ED4" unicode="&#x1ed4;" horiz-adv-x="1565" 
d="M1436 733q0 -348 -174 -550.5t-480 -202.5q-305 0 -479 202.5t-174 552.5q0 349 175.5 549.5t479.5 200.5q306 0 479 -201.5t173 -550.5zM240 733q0 -314 140 -485.5t402 -171.5q264 0 403.5 170t139.5 487q0 316 -139.5 484.5t-401.5 168.5q-261 0 -402.5 -170
t-141.5 -483zM1250 1987q0 -107 -131 -136l-4 -81h-68l-10 131q63 11 94 28t31 56q0 37 -29 50t-76 13q-31 0 -71 -6v72q34 8 86 8q84 0 131 -36t47 -99zM838 1856q101 -135 229 -261v-16h-67q-128 93 -217 176q-89 -83 -217 -176h-68v16q141 136 234 261h106z" />
    <glyph glyph-name="uni1ED5" unicode="&#x1ed5;" horiz-adv-x="1200" 
d="M1081 545q0 -266 -129 -415.5t-356 -149.5q-143 0 -252 69t-167 198t-58 298q0 266 129 414.5t354 148.5q224 0 351.5 -150.5t127.5 -412.5zM223 545q0 -224 98.5 -349.5t278.5 -125.5t278.5 125.5t98.5 349.5q0 225 -99.5 349t-279.5 124t-277.5 -123.5t-97.5 -349.5z
M1067 1649q0 -107 -131 -136l-4 -81h-68l-10 131q63 11 94 28t31 56q0 37 -29 50t-76 13q-31 0 -71 -6v72q34 8 86 8q84 0 131 -36t47 -99zM655 1518q101 -135 229 -261v-16h-67q-128 93 -217 176q-89 -83 -217 -176h-68v16q141 136 234 261h106z" />
    <glyph glyph-name="uni1ED6" unicode="&#x1ed6;" horiz-adv-x="1565" 
d="M1436 733q0 -348 -174 -550.5t-480 -202.5q-305 0 -479 202.5t-174 552.5q0 349 175.5 549.5t479.5 200.5q306 0 479 -201.5t173 -550.5zM240 733q0 -314 140 -485.5t402 -171.5q264 0 403.5 170t139.5 487q0 316 -139.5 484.5t-401.5 168.5q-261 0 -402.5 -170
t-141.5 -483zM918 1935q-39 0 -74.5 20t-67.5 43.5t-61 43.5t-55 20q-80 0 -105 -129h-73q14 97 60 154t124 57q39 0 73.5 -19.5t66 -43t60.5 -43t58 -19.5q75 0 98 127h76q-11 -101 -58.5 -156t-121.5 -55zM838 1856q101 -135 229 -261v-16h-67q-128 93 -217 176
q-89 -83 -217 -176h-68v16q141 136 234 261h106z" />
    <glyph glyph-name="uni1ED7" unicode="&#x1ed7;" horiz-adv-x="1200" 
d="M1081 545q0 -266 -129 -415.5t-356 -149.5q-143 0 -252 69t-167 198t-58 298q0 266 129 414.5t354 148.5q224 0 351.5 -150.5t127.5 -412.5zM223 545q0 -224 98.5 -349.5t278.5 -125.5t278.5 125.5t98.5 349.5q0 225 -99.5 349t-279.5 124t-277.5 -123.5t-97.5 -349.5z
M735 1597q-39 0 -74.5 20t-67.5 43.5t-61 43.5t-55 20q-80 0 -105 -129h-73q14 97 60 154t124 57q39 0 73.5 -19.5t66 -43t60.5 -43t58 -19.5q75 0 98 127h76q-11 -101 -58.5 -156t-121.5 -55zM655 1518q101 -135 229 -261v-16h-67q-128 93 -217 176q-89 -83 -217 -176h-68
v16q141 136 234 261h106z" />
    <glyph glyph-name="uni1ED8" unicode="&#x1ed8;" horiz-adv-x="1565" 
d="M1436 733q0 -348 -174 -550.5t-480 -202.5q-305 0 -479 202.5t-174 552.5q0 349 175.5 549.5t479.5 200.5q306 0 479 -201.5t173 -550.5zM240 733q0 -314 140 -485.5t402 -171.5q264 0 403.5 170t139.5 487q0 316 -139.5 484.5t-401.5 168.5q-261 0 -402.5 -170
t-141.5 -483zM716 -227q0 96 64 96q31 0 48.5 -25t17.5 -71q0 -45 -17.5 -71t-48.5 -26q-64 0 -64 97zM492 1595q62 67 131.5 156t110.5 156h98q68 -120 242 -312v-16h-70q-122 101 -221 207q-108 -114 -221 -207h-70v16z" />
    <glyph glyph-name="uni1ED9" unicode="&#x1ed9;" horiz-adv-x="1200" 
d="M1081 545q0 -266 -129 -415.5t-356 -149.5q-143 0 -252 69t-167 198t-58 298q0 266 129 414.5t354 148.5q224 0 351.5 -150.5t127.5 -412.5zM223 545q0 -224 98.5 -349.5t278.5 -125.5t278.5 125.5t98.5 349.5q0 225 -99.5 349t-279.5 124t-277.5 -123.5t-97.5 -349.5z
M534 -227q0 96 64 96q31 0 48.5 -25t17.5 -71q0 -45 -17.5 -71t-48.5 -26q-64 0 -64 97zM309 1257q62 67 131.5 156t110.5 156h98q68 -120 242 -312v-16h-70q-122 101 -221 207q-108 -114 -221 -207h-70v16z" />
    <glyph glyph-name="uni1EDA" unicode="&#x1eda;" horiz-adv-x="1565" 
d="M1436 733q0 -348 -174 -550.5t-480 -202.5q-305 0 -479 202.5t-174 552.5q0 349 175.5 549.5t479.5 200.5q330 0 500 -230q81 21 120.5 92t39.5 209h104l13 -18q-10 -147 -67.5 -232t-164.5 -120q107 -182 107 -453zM240 733q0 -314 140 -485.5t402 -171.5
q264 0 403.5 170t139.5 487q0 316 -139.5 484.5t-401.5 168.5q-261 0 -402.5 -170t-141.5 -483zM686 1595q73 79 144.5 171.5t97.5 140.5h141v-17q-36 -52 -122.5 -138t-190.5 -173h-70v16z" />
    <glyph glyph-name="uni1EDB" unicode="&#x1edb;" horiz-adv-x="1200" 
d="M1081 545q0 -266 -129 -415.5t-356 -149.5q-143 0 -252 69t-167 198t-58 298q0 266 129 414.5t354 148.5q219 0 348 -147q72 24 107.5 92t38.5 202h100l12 -18q-11 -144 -62 -225t-147 -119q82 -137 82 -348zM223 545q0 -224 98.5 -349.5t278.5 -125.5t278.5 125.5
t98.5 349.5q0 225 -99.5 349t-279.5 124t-277.5 -123.5t-97.5 -349.5zM499 1257q73 79 144.5 171.5t97.5 140.5h141v-17q-36 -52 -122.5 -138t-190.5 -173h-70v16z" />
    <glyph glyph-name="uni1EDC" unicode="&#x1edc;" horiz-adv-x="1565" 
d="M1436 733q0 -348 -174 -550.5t-480 -202.5q-305 0 -479 202.5t-174 552.5q0 349 175.5 549.5t479.5 200.5q330 0 500 -230q81 21 120.5 92t39.5 209h104l13 -18q-10 -147 -67.5 -232t-164.5 -120q107 -182 107 -453zM240 733q0 -314 140 -485.5t402 -171.5
q264 0 403.5 170t139.5 487q0 316 -139.5 484.5t-401.5 168.5q-261 0 -402.5 -170t-141.5 -483zM885 1579h-69q-96 79 -188.5 171.5t-125.5 139.5v17h142q26 -48 98.5 -142t142.5 -170v-16z" />
    <glyph glyph-name="uni1EDD" unicode="&#x1edd;" horiz-adv-x="1200" 
d="M1081 545q0 -266 -129 -415.5t-356 -149.5q-143 0 -252 69t-167 198t-58 298q0 266 129 414.5t354 148.5q219 0 348 -147q72 24 107.5 92t38.5 202h100l12 -18q-11 -144 -62 -225t-147 -119q82 -137 82 -348zM223 545q0 -224 98.5 -349.5t278.5 -125.5t278.5 125.5
t98.5 349.5q0 225 -99.5 349t-279.5 124t-277.5 -123.5t-97.5 -349.5zM718 1241h-69q-96 79 -188.5 171.5t-125.5 139.5v17h142q26 -48 98.5 -142t142.5 -170v-16z" />
    <glyph glyph-name="uni1EDE" unicode="&#x1ede;" horiz-adv-x="1565" 
d="M1436 733q0 -348 -174 -550.5t-480 -202.5q-305 0 -479 202.5t-174 552.5q0 349 175.5 549.5t479.5 200.5q330 0 500 -230q81 21 120.5 92t39.5 209h104l13 -18q-10 -147 -67.5 -232t-164.5 -120q107 -182 107 -453zM240 733q0 -314 140 -485.5t402 -171.5
q264 0 403.5 170t139.5 487q0 316 -139.5 484.5t-401.5 168.5q-261 0 -402.5 -170t-141.5 -483zM974 1843q0 -140 -168 -176l-10 -121h-80l-10 178q89 15 129.5 43t40.5 72q0 48 -33.5 72t-111.5 24q-48 0 -93 -8v78q52 12 107 12q108 0 168.5 -45.5t60.5 -128.5z" />
    <glyph glyph-name="uni1EDF" unicode="&#x1edf;" horiz-adv-x="1200" 
d="M1081 545q0 -266 -129 -415.5t-356 -149.5q-143 0 -252 69t-167 198t-58 298q0 266 129 414.5t354 148.5q219 0 348 -147q72 24 107.5 92t38.5 202h100l12 -18q-11 -144 -62 -225t-147 -119q82 -137 82 -348zM223 545q0 -224 98.5 -349.5t278.5 -125.5t278.5 125.5
t98.5 349.5q0 225 -99.5 349t-279.5 124t-277.5 -123.5t-97.5 -349.5zM792 1505q0 -140 -168 -176l-10 -121h-80l-10 178q89 15 129.5 43t40.5 72q0 48 -33.5 72t-111.5 24q-48 0 -93 -8v78q52 12 107 12q108 0 168.5 -45.5t60.5 -128.5z" />
    <glyph glyph-name="uni1EE0" unicode="&#x1ee0;" horiz-adv-x="1565" 
d="M1436 733q0 -348 -174 -550.5t-480 -202.5q-305 0 -479 202.5t-174 552.5q0 349 175.5 549.5t479.5 200.5q330 0 500 -230q81 21 120.5 92t39.5 209h104l13 -18q-10 -147 -67.5 -232t-164.5 -120q107 -182 107 -453zM240 733q0 -314 140 -485.5t402 -171.5
q264 0 403.5 170t139.5 487q0 316 -139.5 484.5t-401.5 168.5q-261 0 -402.5 -170t-141.5 -483zM940 1581q-36 0 -75 18.5t-101 71.5q-32 26 -62.5 46t-62.5 20q-45 0 -75 -34.5t-48 -121.5h-73q10 111 63 174.5t137 63.5q48 0 88 -25t82 -59q34 -28 66 -50t61 -22
q46 0 77 36.5t48 119.5h76q-16 -116 -69 -177t-132 -61z" />
    <glyph glyph-name="uni1EE1" unicode="&#x1ee1;" horiz-adv-x="1200" 
d="M1081 545q0 -266 -129 -415.5t-356 -149.5q-143 0 -252 69t-167 198t-58 298q0 266 129 414.5t354 148.5q219 0 348 -147q72 24 107.5 92t38.5 202h100l12 -18q-11 -144 -62 -225t-147 -119q82 -137 82 -348zM223 545q0 -224 98.5 -349.5t278.5 -125.5t278.5 125.5
t98.5 349.5q0 225 -99.5 349t-279.5 124t-277.5 -123.5t-97.5 -349.5zM761 1243q-36 0 -75 18.5t-101 71.5q-32 26 -62.5 46t-62.5 20q-45 0 -75 -34.5t-48 -121.5h-73q10 111 63 174.5t137 63.5q48 0 88 -25t82 -59q34 -28 66 -50t61 -22q46 0 77 36.5t48 119.5h76
q-16 -116 -69 -177t-132 -61z" />
    <glyph glyph-name="uni1EE2" unicode="&#x1ee2;" horiz-adv-x="1565" 
d="M1436 733q0 -348 -174 -550.5t-480 -202.5q-305 0 -479 202.5t-174 552.5q0 349 175.5 549.5t479.5 200.5q330 0 500 -230q81 21 120.5 92t39.5 209h104l13 -18q-10 -147 -67.5 -232t-164.5 -120q107 -182 107 -453zM240 733q0 -314 140 -485.5t402 -171.5
q264 0 403.5 170t139.5 487q0 316 -139.5 484.5t-401.5 168.5q-261 0 -402.5 -170t-141.5 -483zM716 -227q0 96 64 96q31 0 48.5 -25t17.5 -71q0 -45 -17.5 -71t-48.5 -26q-64 0 -64 97z" />
    <glyph glyph-name="uni1EE3" unicode="&#x1ee3;" horiz-adv-x="1200" 
d="M1081 545q0 -266 -129 -415.5t-356 -149.5q-143 0 -252 69t-167 198t-58 298q0 266 129 414.5t354 148.5q219 0 348 -147q72 24 107.5 92t38.5 202h100l12 -18q-11 -144 -62 -225t-147 -119q82 -137 82 -348zM223 545q0 -224 98.5 -349.5t278.5 -125.5t278.5 125.5
t98.5 349.5q0 225 -99.5 349t-279.5 124t-277.5 -123.5t-97.5 -349.5zM534 -227q0 96 64 96q31 0 48.5 -25t17.5 -71q0 -45 -17.5 -71t-48.5 -26q-64 0 -64 97z" />
    <glyph glyph-name="uni1EE4" unicode="&#x1ee4;" horiz-adv-x="1473" 
d="M1282 1462v-946q0 -252 -146 -394t-407 -142q-254 0 -396.5 142.5t-142.5 397.5v942h103v-946q0 -211 117 -328.5t331 -117.5q209 0 324 115.5t115 320.5v956h102zM669 -227q0 96 64 96q31 0 48.5 -25t17.5 -71q0 -45 -17.5 -71t-48.5 -26q-64 0 -64 97z" />
    <glyph glyph-name="uni1EE5" unicode="&#x1ee5;" horiz-adv-x="1208" 
d="M268 1087v-704q0 -164 69 -238.5t214 -74.5q194 0 285.5 98t91.5 319v600h98v-1087h-84l-18 150h-6q-106 -170 -377 -170q-371 0 -371 397v710h98zM526 -227q0 96 64 96q31 0 48.5 -25t17.5 -71q0 -45 -17.5 -71t-48.5 -26q-64 0 -64 97z" />
    <glyph glyph-name="uni1EE6" unicode="&#x1ee6;" horiz-adv-x="1473" 
d="M1282 1462v-946q0 -252 -146 -394t-407 -142q-254 0 -396.5 142.5t-142.5 397.5v942h103v-946q0 -211 117 -328.5t331 -117.5q209 0 324 115.5t115 320.5v956h102zM923 1843q0 -140 -168 -176l-10 -121h-80l-10 178q89 15 129.5 43t40.5 72q0 48 -33.5 72t-111.5 24
q-48 0 -93 -8v78q52 12 107 12q108 0 168.5 -45.5t60.5 -128.5z" />
    <glyph glyph-name="uni1EE7" unicode="&#x1ee7;" horiz-adv-x="1208" 
d="M268 1087v-704q0 -164 69 -238.5t214 -74.5q194 0 285.5 98t91.5 319v600h98v-1087h-84l-18 150h-6q-106 -170 -377 -170q-371 0 -371 397v710h98zM802 1505q0 -140 -168 -176l-10 -121h-80l-10 178q89 15 129.5 43t40.5 72q0 48 -33.5 72t-111.5 24q-48 0 -93 -8v78
q52 12 107 12q108 0 168.5 -45.5t60.5 -128.5z" />
    <glyph glyph-name="uni1EE8" unicode="&#x1ee8;" horiz-adv-x="1497" 
d="M1282 1462v-207q89 19 130.5 89t41.5 212h105l12 -18q-12 -167 -85.5 -254.5t-203.5 -112.5v-655q0 -252 -146 -394t-407 -142q-254 0 -396.5 142.5t-142.5 397.5v942h103v-946q0 -211 117 -328.5t331 -117.5q209 0 324 115.5t115 320.5v956h102zM633 1595
q73 79 144.5 171.5t97.5 140.5h141v-17q-36 -52 -122.5 -138t-190.5 -173h-70v16z" />
    <glyph glyph-name="uni1EE9" unicode="&#x1ee9;" horiz-adv-x="1262" 
d="M268 1087v-704q0 -164 72.5 -238.5t224.5 -74.5q189 0 276 99t87 318v600h98v-122q66 11 104.5 44t55 90t16.5 167h101l12 -19q-9 -123 -41 -190t-91.5 -113t-156.5 -63v-881h-84l-18 150h-6q-52 -82 -143.5 -126t-209.5 -44q-201 0 -298 98t-97 299v710h98zM495 1257
q73 79 144.5 171.5t97.5 140.5h141v-17q-36 -52 -122.5 -138t-190.5 -173h-70v16z" />
    <glyph glyph-name="uni1EEA" unicode="&#x1eea;" horiz-adv-x="1497" 
d="M1282 1462v-207q89 19 130.5 89t41.5 212h105l12 -18q-12 -167 -85.5 -254.5t-203.5 -112.5v-655q0 -252 -146 -394t-407 -142q-254 0 -396.5 142.5t-142.5 397.5v942h103v-946q0 -211 117 -328.5t331 -117.5q209 0 324 115.5t115 320.5v956h102zM833 1579h-69
q-96 79 -188.5 171.5t-125.5 139.5v17h142q26 -48 98.5 -142t142.5 -170v-16z" />
    <glyph glyph-name="uni1EEB" unicode="&#x1eeb;" horiz-adv-x="1262" 
d="M268 1087v-704q0 -164 72.5 -238.5t224.5 -74.5q189 0 276 99t87 318v600h98v-122q66 11 104.5 44t55 90t16.5 167h101l12 -19q-9 -123 -41 -190t-91.5 -113t-156.5 -63v-881h-84l-18 150h-6q-52 -82 -143.5 -126t-209.5 -44q-201 0 -298 98t-97 299v710h98zM687 1241
h-69q-96 79 -188.5 171.5t-125.5 139.5v17h142q26 -48 98.5 -142t142.5 -170v-16z" />
    <glyph glyph-name="uni1EEC" unicode="&#x1eec;" horiz-adv-x="1497" 
d="M1282 1462v-207q89 19 130.5 89t41.5 212h105l12 -18q-12 -167 -85.5 -254.5t-203.5 -112.5v-655q0 -252 -146 -394t-407 -142q-254 0 -396.5 142.5t-142.5 397.5v942h103v-946q0 -211 117 -328.5t331 -117.5q209 0 324 115.5t115 320.5v956h102zM923 1843
q0 -140 -168 -176l-10 -121h-80l-10 178q89 15 129.5 43t40.5 72q0 48 -33.5 72t-111.5 24q-48 0 -93 -8v78q52 12 107 12q108 0 168.5 -45.5t60.5 -128.5z" />
    <glyph glyph-name="uni1EED" unicode="&#x1eed;" horiz-adv-x="1262" 
d="M268 1087v-704q0 -164 72.5 -238.5t224.5 -74.5q189 0 276 99t87 318v600h98v-122q66 11 104.5 44t55 90t16.5 167h101l12 -19q-9 -123 -41 -190t-91.5 -113t-156.5 -63v-881h-84l-18 150h-6q-52 -82 -143.5 -126t-209.5 -44q-201 0 -298 98t-97 299v710h98zM802 1505
q0 -140 -168 -176l-10 -121h-80l-10 178q89 15 129.5 43t40.5 72q0 48 -33.5 72t-111.5 24q-48 0 -93 -8v78q52 12 107 12q108 0 168.5 -45.5t60.5 -128.5z" />
    <glyph glyph-name="uni1EEE" unicode="&#x1eee;" horiz-adv-x="1497" 
d="M1282 1462v-207q89 19 130.5 89t41.5 212h105l12 -18q-12 -167 -85.5 -254.5t-203.5 -112.5v-655q0 -252 -146 -394t-407 -142q-254 0 -396.5 142.5t-142.5 397.5v942h103v-946q0 -211 117 -328.5t331 -117.5q209 0 324 115.5t115 320.5v956h102zM893 1581
q-36 0 -75 18.5t-101 71.5q-32 26 -62.5 46t-62.5 20q-45 0 -75 -34.5t-48 -121.5h-73q10 111 63 174.5t137 63.5q48 0 88 -25t82 -59q34 -28 66 -50t61 -22q46 0 77 36.5t48 119.5h76q-16 -116 -69 -177t-132 -61z" />
    <glyph glyph-name="uni1EEF" unicode="&#x1eef;" horiz-adv-x="1262" 
d="M268 1087v-704q0 -164 72.5 -238.5t224.5 -74.5q189 0 276 99t87 318v600h98v-122q66 11 104.5 44t55 90t16.5 167h101l12 -19q-9 -123 -41 -190t-91.5 -113t-156.5 -63v-881h-84l-18 150h-6q-52 -82 -143.5 -126t-209.5 -44q-201 0 -298 98t-97 299v710h98zM765 1243
q-36 0 -75 18.5t-101 71.5q-32 26 -62.5 46t-62.5 20q-45 0 -75 -34.5t-48 -121.5h-73q10 111 63 174.5t137 63.5q48 0 88 -25t82 -59q34 -28 66 -50t61 -22q46 0 77 36.5t48 119.5h76q-16 -116 -69 -177t-132 -61z" />
    <glyph glyph-name="uni1EF0" unicode="&#x1ef0;" horiz-adv-x="1497" 
d="M1282 1462v-207q89 19 130.5 89t41.5 212h105l12 -18q-12 -167 -85.5 -254.5t-203.5 -112.5v-655q0 -252 -146 -394t-407 -142q-254 0 -396.5 142.5t-142.5 397.5v942h103v-946q0 -211 117 -328.5t331 -117.5q209 0 324 115.5t115 320.5v956h102zM669 -227q0 96 64 96
q31 0 48.5 -25t17.5 -71q0 -45 -17.5 -71t-48.5 -26q-64 0 -64 97z" />
    <glyph glyph-name="uni1EF1" unicode="&#x1ef1;" horiz-adv-x="1262" 
d="M268 1087v-704q0 -164 72.5 -238.5t224.5 -74.5q189 0 276 99t87 318v600h98v-122q66 11 104.5 44t55 90t16.5 167h101l12 -19q-9 -123 -41 -190t-91.5 -113t-156.5 -63v-881h-84l-18 150h-6q-52 -82 -143.5 -126t-209.5 -44q-201 0 -298 98t-97 299v710h98zM526 -227
q0 96 64 96q31 0 48.5 -25t17.5 -71q0 -45 -17.5 -71t-48.5 -26q-64 0 -64 97z" />
    <glyph glyph-name="uni20AB" unicode="&#x20ab;" horiz-adv-x="1219" 
d="M580 1108q118 0 204 -43t154 -147h6q-6 126 -6 247v107h-473v82h473v202h98v-202h156v-82h-156v-1272h-65l-25 166h-8q-124 -186 -356 -186q-225 0 -344 140t-119 408q0 282 118 431t343 149zM580 1018q-178 0 -267.5 -125t-89.5 -363q0 -462 359 -462q184 0 270 107
t86 353v17q0 252 -84.5 362.5t-273.5 110.5zM1036 -266h-850v82h850v-82z" />
    <glyph glyph-name="null" horiz-adv-x="0" 
 />
    <glyph glyph-name="space" horiz-adv-x="532" 
 />
    <glyph glyph-name="A" 
d="M911 516h-594l-204 -516h-113l588 1468h65l576 -1468h-115zM354 608h523l-199 527q-25 62 -60 172q-27 -96 -59 -174z" />
    <glyph glyph-name="E" horiz-adv-x="1130" 
d="M1006 0h-799v1462h799v-94h-697v-553h658v-94h-658v-627h697v-94z" />
    <glyph glyph-name="O" horiz-adv-x="1565" 
d="M1436 733q0 -348 -174 -550.5t-480 -202.5q-305 0 -479 202.5t-174 552.5q0 349 175.5 549.5t479.5 200.5q306 0 479 -201.5t173 -550.5zM240 733q0 -314 140 -485.5t402 -171.5q264 0 403.5 170t139.5 487q0 316 -139.5 484.5t-401.5 168.5q-261 0 -402.5 -170
t-141.5 -483z" />
    <glyph glyph-name="U" horiz-adv-x="1473" 
d="M1282 1462v-946q0 -252 -146 -394t-407 -142q-254 0 -396.5 142.5t-142.5 397.5v942h103v-946q0 -211 117 -328.5t331 -117.5q209 0 324 115.5t115 320.5v956h102z" />
    <glyph glyph-name="underscore" horiz-adv-x="842" 
d="M846 -266h-850v82h850v-82z" />
    <glyph glyph-name="grave" horiz-adv-x="1182" 
d="M776 1241h-69q-96 79 -188.5 171.5t-125.5 139.5v17h142q26 -48 98.5 -142t142.5 -170v-16z" />
    <glyph glyph-name="a" horiz-adv-x="1085" 
d="M842 0l-25 172h-8q-82 -105 -168.5 -148.5t-204.5 -43.5q-160 0 -249 82t-89 227q0 159 132.5 247t383.5 93l207 6v72q0 155 -63 234t-203 79q-151 0 -313 -84l-37 86q179 84 354 84q179 0 267.5 -93t88.5 -290v-723h-73zM442 70q174 0 274.5 99.5t100.5 276.5v107
l-190 -8q-229 -11 -326.5 -71.5t-97.5 -188.5q0 -102 62.5 -158.5t176.5 -56.5z" />
    <glyph glyph-name="e" horiz-adv-x="1124" 
d="M621 -20q-237 0 -369.5 146t-132.5 409q0 260 128 416.5t345 156.5q192 0 303 -134t111 -364v-80h-783q2 -224 104.5 -342t293.5 -118q93 0 163.5 13t178.5 56v-90q-92 -40 -170 -54.5t-172 -14.5zM592 1020q-157 0 -252 -103.5t-111 -298.5h672q0 189 -82 295.5
t-227 106.5z" />
    <glyph glyph-name="i" horiz-adv-x="463" 
d="M281 0h-99v1087h99v-1087zM168 1389q0 96 63 96q31 0 48.5 -25t17.5 -71q0 -45 -17.5 -71t-48.5 -26q-63 0 -63 97z" />
    <glyph glyph-name="o" horiz-adv-x="1200" 
d="M1081 545q0 -266 -129 -415.5t-356 -149.5q-143 0 -252 69t-167 198t-58 298q0 266 129 414.5t354 148.5q224 0 351.5 -150.5t127.5 -412.5zM223 545q0 -224 98.5 -349.5t278.5 -125.5t278.5 125.5t98.5 349.5q0 225 -99.5 349t-279.5 124t-277.5 -123.5t-97.5 -349.5z
" />
    <glyph glyph-name="u" horiz-adv-x="1208" 
d="M268 1087v-704q0 -164 69 -238.5t214 -74.5q194 0 285.5 98t91.5 319v600h98v-1087h-84l-18 150h-6q-106 -170 -377 -170q-371 0 -371 397v710h98z" />
    <glyph glyph-name="acute" horiz-adv-x="1182" 
d="M393 1257q73 79 144.5 171.5t97.5 140.5h141v-17q-36 -52 -122.5 -138t-190.5 -173h-70v16z" />
    <glyph glyph-name="dcroat" horiz-adv-x="1219" 
d="M580 1108q118 0 204 -43t154 -147h6q-6 126 -6 247v107h-473v82h473v202h98v-202h156v-82h-156v-1272h-65l-25 166h-8q-124 -186 -356 -186q-225 0 -344 140t-119 408q0 282 118 431t343 149zM580 1018q-178 0 -267.5 -125t-89.5 -363q0 -462 359 -462q184 0 270 107
t86 353v17q0 252 -84.5 362.5t-273.5 110.5z" />
    <glyph glyph-name="dotlessi" horiz-adv-x="463" 
d="M281 0h-99v1087h99v-1087z" />
    <glyph glyph-name="circumflex" horiz-adv-x="1182" 
d="M299 1257q62 67 131.5 156t110.5 156h98q68 -120 242 -312v-16h-70q-122 101 -221 207q-108 -114 -221 -207h-70v16z" />
    <glyph glyph-name="breve" horiz-adv-x="1182" 
d="M586 1241q-253 0 -275 246h82q14 -87 60.5 -124.5t134.5 -37.5t134.5 37.5t61.5 124.5h80q-30 -246 -278 -246z" />
    <glyph glyph-name="tilde" horiz-adv-x="1182" 
d="M780 1243q-36 0 -75 18.5t-101 71.5q-32 26 -62.5 46t-62.5 20q-45 0 -75 -34.5t-48 -121.5h-73q10 111 63 174.5t137 63.5q48 0 88 -25t82 -59q34 -28 66 -50t61 -22q46 0 77 36.5t48 119.5h76q-16 -116 -69 -177t-132 -61z" />
    <glyph glyph-name="Ohorn" horiz-adv-x="1565" 
d="M1436 733q0 -348 -174 -550.5t-480 -202.5q-305 0 -479 202.5t-174 552.5q0 349 175.5 549.5t479.5 200.5q330 0 500 -230q81 21 120.5 92t39.5 209h104l13 -18q-10 -147 -67.5 -232t-164.5 -120q107 -182 107 -453zM240 733q0 -314 140 -485.5t402 -171.5
q264 0 403.5 170t139.5 487q0 316 -139.5 484.5t-401.5 168.5q-261 0 -402.5 -170t-141.5 -483z" />
    <glyph glyph-name="ohorn" horiz-adv-x="1200" 
d="M1081 545q0 -266 -129 -415.5t-356 -149.5q-143 0 -252 69t-167 198t-58 298q0 266 129 414.5t354 148.5q219 0 348 -147q72 24 107.5 92t38.5 202h100l12 -18q-11 -144 -62 -225t-147 -119q82 -137 82 -348zM223 545q0 -224 98.5 -349.5t278.5 -125.5t278.5 125.5
t98.5 349.5q0 225 -99.5 349t-279.5 124t-277.5 -123.5t-97.5 -349.5z" />
    <glyph glyph-name="Uhorn" horiz-adv-x="1497" 
d="M1282 1462v-207q89 19 130.5 89t41.5 212h105l12 -18q-12 -167 -85.5 -254.5t-203.5 -112.5v-655q0 -252 -146 -394t-407 -142q-254 0 -396.5 142.5t-142.5 397.5v942h103v-946q0 -211 117 -328.5t331 -117.5q209 0 324 115.5t115 320.5v956h102z" />
    <glyph glyph-name="uhorn" horiz-adv-x="1262" 
d="M268 1087v-704q0 -164 72.5 -238.5t224.5 -74.5q189 0 276 99t87 318v600h98v-122q66 11 104.5 44t55 90t16.5 167h101l12 -19q-9 -123 -41 -190t-91.5 -113t-156.5 -63v-881h-84l-18 150h-6q-52 -82 -143.5 -126t-209.5 -44q-201 0 -298 98t-97 299v710h98z" />
    <glyph glyph-name="hook" horiz-adv-x="0" 
d="M-412 1505q0 -140 -168 -176l-10 -121h-80l-10 178q89 15 129.5 43t40.5 72q0 48 -33.5 72t-111.5 24q-48 0 -93 -8v78q52 12 107 12q108 0 168.5 -45.5t60.5 -128.5z" />
    <glyph glyph-name="dotbelow" horiz-adv-x="0" 
d="M-662 -227q0 96 64 96q31 0 48.5 -25t17.5 -71q0 -45 -17.5 -71t-48.5 -26q-64 0 -64 97z" />
    <glyph glyph-name="circumflexacutecomb" horiz-adv-x="0" 
d="M-551 1518q101 -135 229 -261v-16h-67q-128 93 -217 176q-89 -83 -217 -176h-68v16q141 136 234 261h106zM-401 1452q42 54 65.5 90t69.5 121h125v-16q-90 -121 -193 -211h-67v16z" />
    <glyph glyph-name="circumflexgravecomb" horiz-adv-x="0" 
d="M-551 1518q101 -135 229 -261v-16h-67q-128 93 -217 176q-89 -83 -217 -176h-68v16q141 136 234 261h106zM-807 1436h-67q-115 100 -193 211v16h125q47 -86 69 -119.5t66 -91.5v-16z" />
    <glyph glyph-name="circumflexhookcomb" horiz-adv-x="0" 
d="M-139 1649q0 -107 -131 -136l-4 -81h-68l-10 131q63 11 94 28t31 56q0 37 -29 50t-76 13q-31 0 -71 -6v72q34 8 86 8q84 0 131 -36t47 -99zM-551 1518q101 -135 229 -261v-16h-67q-128 93 -217 176q-89 -83 -217 -176h-68v16q141 136 234 261h106z" />
    <glyph glyph-name="circumflextildecomb" horiz-adv-x="0" 
d="M-471 1597q-39 0 -74.5 20t-67.5 43.5t-61 43.5t-55 20q-80 0 -105 -129h-73q14 97 60 154t124 57q39 0 73.5 -19.5t66 -43t60.5 -43t58 -19.5q75 0 98 127h76q-11 -101 -58.5 -156t-121.5 -55zM-551 1518q101 -135 229 -261v-16h-67q-128 93 -217 176q-89 -83 -217 -176
h-68v16q141 136 234 261h106z" />
    <glyph glyph-name="breveacutecomb" horiz-adv-x="0" 
d="M-612 1241q-253 0 -275 246h82q14 -87 60.5 -124.5t134.5 -37.5t134.5 37.5t61.5 124.5h80q-30 -246 -278 -246zM-674 1518q34 42 59.5 80t75.5 131h125v-17q-37 -53 -93 -113.5t-99 -97.5h-68v17z" />
    <glyph glyph-name="brevegravecomb" horiz-adv-x="0" 
d="M-559 1501h-68q-42 37 -99 98.5t-93 112.5v17h125q51 -94 70 -122.5t65 -88.5v-17zM-612 1241q-253 0 -275 246h82q14 -87 60.5 -124.5t134.5 -37.5t134.5 37.5t61.5 124.5h80q-30 -246 -278 -246z" />
    <glyph glyph-name="brevehookcomb" horiz-adv-x="0" 
d="M-469 1661q0 -107 -127 -131l-6 -43h-70l-10 90q62 11 93.5 28.5t31.5 55.5q0 63 -98 63q-39 0 -78 -6v72q34 8 90 8q80 0 127 -37t47 -100zM-612 1241q-253 0 -275 246h82q14 -87 60.5 -124.5t134.5 -37.5t134.5 37.5t61.5 124.5h80q-30 -246 -278 -246z" />
    <glyph glyph-name="brevetildecomb" horiz-adv-x="0" 
d="M-612 1241q-253 0 -275 246h82q14 -87 60.5 -124.5t134.5 -37.5t134.5 37.5t61.5 124.5h80q-30 -246 -278 -246zM-471 1587q-39 0 -74.5 20t-67.5 43.5t-61 43.5t-55 20q-80 0 -105 -129h-73q14 97 60 154t124 57q39 0 73.5 -19.5t66 -43t60.5 -43t58 -19.5q45 0 66 35
t32 92h76q-11 -101 -58.5 -156t-121.5 -55z" />
    <glyph glyph-name="I" horiz-adv-x="516" 
d="M207 0v1462h102v-1462h-102z" />
    </font>
</defs>
</svg>
